<svg version="1.1" id="Layer_1" xmlns="http://www.w3.org/2000/svg" xmlns:xlink="http://www.w3.org/1999/xlink" x="0px" y="0px"
				    width="1014px" height="300px" viewBox="0 0 1014 300" enable-background="new 0 0 1014 300" xml:space="preserve">
					<g>
						<path class="svg_effect" fill="#008848" d="M596.79,218.793c0,1.548-0.2,3.245-0.61,5.091c-0.406,1.846-0.796,2.769-1.175,2.769
		c-0.293,0-0.442-0.146-0.442-0.446c0-0.092,0.032-0.224,0.088-0.403c0.779-2.082,1.169-4.33,1.169-6.741
		c0-3.753-1.104-6.767-3.302-9.044c-2.207-2.277-5.119-3.419-8.73-3.419c-4.97,0-9.995,1.627-15.078,4.871
		c4.349,3.514,6.523,7.327,6.523,11.436c0,3.486-1.375,6.457-4.123,8.915c-2.743,2.455-6.369,3.969-10.863,4.537
		c3.057,1.788,4.586,4.385,4.586,7.78c0,2.27-0.779,5.713-2.34,10.334c-1.03,3.044-1.542,5.432-1.542,7.161
		c0,1.792,0.634,3.302,1.896,4.541c1.267,1.238,2.817,1.856,4.643,1.856c1.883,0,7.657-3.628,9.334-4.897
		c0.384-0.238,0.651-0.355,0.794-0.355c0.235,0,0.354,0.117,0.354,0.355c0,0.504-0.702,1.093-2.251,1.977
		c-1.549,0.879-4.842,3.288-8.499,3.771c-2.799,0.37-5.194-1.142-7.109-3.423c-1.907-2.283-2.865-5.106-2.865-8.479
		c0-2.444,1.056-6.756,3.174-12.93c0.529-1.58,0.794-2.924,0.794-4.026c0-1.401-0.574-2.596-1.722-3.578
		c-1.877,0.176-2.951,0.267-3.216,0.267c-2.909,0-4.364-0.372-4.364-1.117c0-0.477,0.732-0.716,2.205-0.716
		c1.734,0,3.465,0.344,5.2,1.03c3.498-0.566,6.365-2.213,8.596-4.938c2.237-2.724,3.349-5.933,3.349-9.628
		c0-2.919-1.112-5.719-3.349-8.398l-0.44-0.581c-6.437,4.889-12.52,13.414-18.249,25.574c-3.472,7.366-6.643,12.671-9.524,15.922
		c-2.882,3.245-6.917,6.184-12.123,8.806c-6.14,3.041-11.622,4.561-16.443,4.561c-3.939,0-7.216-0.914-9.831-2.751
		c-2.615-1.831-3.924-4.119-3.924-6.86c0-1.521,0.456-2.832,1.369-3.935c0.908-1.104,1.984-1.654,3.215-1.654
		c1.796,0,2.692,1.013,2.692,3.041c0,1.015-0.301,1.877-0.908,2.593c-0.599,0.715-1.342,1.073-2.225,1.073
		c-1.529,0-2.261-0.806-2.201-2.414c0.026-0.657-0.03-0.984-0.179-0.984c-0.473,0-0.702,0.788-0.702,2.369
		c0,2.477,1.193,4.53,3.59,6.169c2.389,1.639,5.411,2.46,9.051,2.46c6.432,0,12.262-2.414,17.488-7.245
		c2.293-2.115,4.247-4.276,5.863-6.481c1.758-2.384,5.604-8.166,11.539-17.346c2.969-4.534,6.461-9.077,10.488-13.639
		c4.021-4.562,7.442-7.825,10.263-9.795c-4.584-3.957-11.315-5.939-20.192-5.939c-12.401,0-23.187,4.547-32.357,13.635
		c-7.523,7.451-11.283,14.471-11.283,21.059c0,3.34,1.057,5.991,3.176,7.958c2.112,1.965,4.98,2.948,8.595,2.948
		c5.907,0,12.011-2.875,18.314-8.628c6.303-5.751,9.457-11.339,9.457-16.765c0-4.321-2.189-6.481-6.568-6.481
		c-4.381,0-9.072,2.478-14.084,7.437c-5.01,4.96-7.517,9.61-7.517,13.957c0,1.075,0.354,1.998,1.065,2.773
		c0.708,0.775,1.535,1.158,2.483,1.158c0.502,0,0.753,0.137,0.753,0.401c0,0.24-0.283,0.359-0.84,0.359
		c-1.421,0-2.611-0.648-3.586-1.943c-0.974-1.295-1.46-2.88-1.46-4.756c0-4.646,2.513-9.172,7.538-13.581
		c5.027-4.406,10.182-6.612,15.474-6.612c5.051,0,7.58,2.37,7.58,7.109c0,5.78-3.216,11.625-9.65,17.525
		c-6.437,5.903-12.787,8.853-19.043,8.853c-4.087,0-7.355-1.242-9.811-3.733c-2.453-2.487-3.682-5.818-3.682-9.993
		c0-8.434,4.697-16.131,14.088-23.092c9.391-6.959,19.77-10.439,31.141-10.439c8.641,0,15.899,1.951,21.78,5.855
		c5.375-3.396,10.581-5.096,15.602-5.096c3.938,0,7.109,1.191,9.504,3.575C595.595,211.752,596.79,214.894,596.79,218.793z"
						/>
						<path class="svg_effect" fill="#008848" d="M601.747,251.332c0,0.089-0.265,0.478-0.796,1.16l-1.894,2.413c-6.09,7.618-11.312,11.428-15.664,11.428
		c-2.062,0-3.79-0.754-5.185-2.257c-1.397-1.507-2.095-3.393-2.095-5.657c0-5.365,3.688-10.088,11.066-14.172
		c3.876-2.147,7.036-3.22,9.478-3.22c1.056,0,1.961,0.32,2.711,0.964c0.748,0.639,1.122,1.421,1.122,2.345
		c0,2.146-1.381,3.972-4.144,5.477c-2.762,1.504-7.378,2.915-13.841,4.225c-1.997,3.072-2.999,5.633-2.999,7.69
		c0,2.564,1.371,3.847,4.106,3.847c4.646,0,10.339-4.6,17.076-13.795c0.354-0.478,0.649-0.715,0.883-0.715
		C601.687,251.093,601.747,251.184,601.747,251.332z M598.023,243.042c0-0.958-0.516-1.434-1.544-1.434
		c-1.559,0-3.607,1.096-6.149,3.286c-2.543,2.19-5.034,5.03-7.472,8.519c4.23-1.103,7.815-2.66,10.754-4.675
		C596.551,246.73,598.023,244.827,598.023,243.042z" />
						<path class="svg_effect" fill="#008848" d="M632.828,251.288c0,0.627-2.148,3.523-6.444,8.687c-3.472,4.238-6.208,6.358-8.208,6.358
		c-1.354,0-2.459-0.516-3.311-1.543c-0.854-1.026-1.279-2.316-1.279-3.866c0-1.61,0.471-3.354,1.41-5.232
		c-2.938,4.173-5.188,6.989-6.744,8.452c-1.559,1.459-3.073,2.189-4.541,2.189c-1.559,0-2.864-0.679-3.923-2.034
		c-1.06-1.356-1.587-3.063-1.587-5.118c0-5.723,3.981-10.793,11.947-15.202c3.499-1.968,6.318-2.951,8.465-2.951
		c1.82,0,2.731,0.896,2.731,2.682c0,0.507-0.119,1.178-0.352,2.014l2.248-4.335c0.881,0.207,1.66,0.312,2.336,0.312
		c0.793,0,1.82-0.104,3.086-0.312l-7.804,13.097c-2.702,4.594-4.054,7.613-4.054,9.077c0,1.401,0.57,2.1,1.721,2.1
		c1.177,0,3.062-1.365,5.651-4.098c2.589-2.731,5.224-6.097,7.899-10.096c0.178-0.298,0.34-0.448,0.488-0.448
		C632.739,251.019,632.828,251.108,632.828,251.288z M620.686,243.889c0-1.462-0.664-2.19-1.986-2.19
		c-2.706,0-6.251,2.682-10.646,8.048c-4.393,5.364-6.592,9.7-6.592,13.008c0,1.939,0.855,2.906,2.557,2.906
		c2.029,0,5.539-3.411,10.537-10.235C618.641,249.821,620.686,245.974,620.686,243.889z" />
						<path class="svg_effect" fill="#008848" d="M657.758,216.878c-12.338,20.833-21.168,35.816-23.209,39.483c-2.043,3.667-3.063,6.097-3.063,7.287
		c0,1.342,0.557,2.012,1.676,2.012c2.471,0,7.004-4.732,13.598-14.193c0.146-0.298,0.324-0.448,0.529-0.448
		c0.118,0.032,0.176,0.121,0.176,0.269c0,0.18-0.146,0.419-0.439,0.715l-1.898,2.643c-5.563,7.792-9.667,11.688-12.314,11.688
		c-1.267,0-2.303-0.484-3.109-1.455c-0.813-0.966-1.217-2.197-1.217-3.687c0-1.639,0.375-3.228,1.126-4.762
		c0.749-1.535,3.298-5.969,7.647-13.301c5.32-8.972,11.432-19.484,15.078-26.074c0.881,0.239,1.66,0.359,2.338,0.359
		C655.789,217.414,656.82,217.236,657.758,216.878z" />
						<path class="svg_effect" fill="#008848" d="M688.771,248.18c0,4.858-2.984,9.285-8.949,13.277c-4.854,3.252-8.643,4.875-11.377,4.875
		c-1.881,0-2.82-0.895-2.82-2.684c0-0.536,0.149-1.265,0.441-2.191l-16.882,27.472c-1.032-0.236-1.868-0.355-2.513-0.355
		c-0.971,0-1.925,0.176-2.867,0.535l28.939-48.446c0.792,0.269,1.572,0.4,2.336,0.4c0.793,0,1.762-0.132,2.909-0.4l-5.84,10.648
		c3.144-4.235,5.431-7.008,6.856-8.317c1.427-1.312,2.843-1.968,4.253-1.968c1.559,0,2.865,0.688,3.923,2.057
		C688.238,244.456,688.771,246.155,688.771,248.18z M685.51,244.604c0-1.938-0.856-2.905-2.56-2.905
		c-2.143,0-5.744,3.501-10.801,10.508c-3.909,5.424-5.86,9.148-5.86,11.177c0,1.52,0.687,2.277,2.07,2.277
		c2.703,0,6.236-2.672,10.602-8.025C683.324,252.287,685.51,247.94,685.51,244.604z" />
						<path class="svg_effect" fill="#008848" d="M722.824,251.288c0,0.627-2.148,3.523-6.44,8.687c-3.472,4.238-6.211,6.358-8.21,6.358
		c-1.355,0-2.457-0.516-3.31-1.543c-0.854-1.026-1.282-2.316-1.282-3.866c0-1.61,0.473-3.354,1.411-5.232
		c-2.938,4.173-5.186,6.989-6.745,8.452c-1.559,1.459-3.07,2.189-4.539,2.189c-1.559,0-2.865-0.679-3.924-2.034
		c-1.06-1.356-1.588-3.063-1.588-5.118c0-5.723,3.984-10.793,11.949-15.202c3.498-1.968,6.317-2.951,8.462-2.951
		c1.82,0,2.733,0.896,2.733,2.682c0,0.507-0.118,1.178-0.354,2.014l2.252-4.335c0.877,0.207,1.656,0.312,2.332,0.312
		c0.796,0,1.822-0.104,3.088-0.312l-7.806,13.097c-2.701,4.594-4.052,7.613-4.052,9.077c0,1.401,0.57,2.1,1.72,2.1
		c1.179,0,3.061-1.365,5.651-4.098c2.588-2.731,5.226-6.097,7.902-10.096c0.174-0.298,0.338-0.448,0.486-0.448
		C722.737,251.019,722.824,251.108,722.824,251.288z M710.681,243.889c0-1.462-0.661-2.19-1.985-2.19
		c-2.702,0-6.25,2.682-10.646,8.048c-4.391,5.364-6.59,9.7-6.59,13.008c0,1.939,0.855,2.906,2.559,2.906
		c2.026,0,5.54-3.411,10.534-10.235C708.639,249.821,710.681,245.974,710.681,243.889z" />
						<path class="svg_effect" fill="#008848" d="M748.13,251.288c0,0.239-0.882,1.33-2.646,3.274c-2.241,2.512-4.345,3.766-6.318,3.766
		c-2.235,0-3.354-1.311-3.354-3.933c0-0.834,0.175-1.892,0.526-3.172c-1.851,1.638-3.358,3.261-4.517,4.871
		c-1.159,1.609-3.164,4.889-6.017,9.835c-1.559-0.12-2.472-0.18-2.733-0.18c-0.118,0-1.015,0.06-2.687,0.18l7.226-11.893
		c3.616-5.96,5.42-9.656,5.42-11.087c0-0.835-0.337-1.251-1.015-1.251c-1.646,0-4.637,3.21-8.966,9.633
		c-0.265,0.417-0.502,0.628-0.707,0.628c-0.117-0.029-0.174-0.118-0.174-0.269c0.024-0.151,0.087-0.271,0.174-0.359l0.796-1.117
		c4.534-6.125,7.61-9.188,9.226-9.188c2.354,0,3.533,1.536,3.533,4.604c0,2.296-1.205,5.336-3.615,9.123
		c1.527-1.79,2.984-3.251,4.365-4.386c1.117-2.648,2.508-4.871,4.17-6.66c1.656-1.785,3.148-2.682,4.471-2.682
		c0.913,0,1.365,0.402,1.365,1.207c0,1.431-2.043,3.473-6.124,6.125c-0.646,0.419-1.622,1.028-2.912,1.834l-0.53,0.448
		c-0.41,1.369-0.615,2.5-0.615,3.396c0,2.504,0.928,3.756,2.78,3.756c2.298,0,4.801-1.928,7.514-5.787
		c0.584-0.657,0.953-0.986,1.103-0.986C748.043,251.019,748.13,251.108,748.13,251.288z" />
						<path class="svg_effect" fill="#008848" d="M773.129,216.878c-0.235,0.415-0.603,1.026-1.104,1.831c-0.765,1.252-3.473,5.852-5.002,8.324
		c-0.734,1.282-1.867,3.204-3.395,5.765l-7.581,12.432c-2.528,4.143-4.671,7.898-6.435,11.267c-1.972,3.756-3.561,6.663-4.765,8.719
		l-0.572,0.894c-0.794-0.18-1.572-0.269-2.338-0.269c-0.646,0-1.6,0.089-2.866,0.269c0.678-1.163,1.427-2.475,2.251-3.935
		l5.113-9.033c0.765-1.338,1.909-3.363,3.437-6.08l17.746-30.183c1.205,0.239,2.103,0.357,2.69,0.357
		C770.896,217.236,771.838,217.118,773.129,216.878z M775.379,251.288c-0.032,0.091-0.182,0.33-0.442,0.715l-1.897,2.643
		c-5.561,7.792-9.755,11.688-12.581,11.688c-1.261,0-2.379-0.432-3.354-1.297c-0.968-0.867-1.455-1.851-1.455-2.958
		c0-0.954,0.824-3.089,2.471-6.402l0.042-0.178c0.559-1.104,0.839-1.923,0.839-2.465c0-0.655-0.485-1.267-1.455-1.835
		c-1.118,0.478-2.04,0.717-2.779,0.717c-1.027,0-1.539-0.297-1.539-0.896c0-0.504,0.481-0.758,1.451-0.758
		c0.944,0,1.812,0.15,2.601,0.447c1.472-0.656,3.821-2.872,7.058-6.647c1.732-2.024,3.508-3.034,5.334-3.034
		c2.23,0,3.348,1.072,3.348,3.22c0,1.432-0.563,2.854-1.697,4.271c-1.133,1.415-2.257,2.123-3.369,2.123
		c-1.268,0-1.898-0.583-1.898-1.743c0-1.074,0.955-2.222,2.867-3.443c0.789-0.508,1.189-1.224,1.189-2.148
		c0-0.713-0.457-1.072-1.368-1.072c-1.264,0-2.853,1.129-4.759,3.39c-2.442,2.823-4.426,4.58-5.949,5.26
		c3.049,1.437,4.578,3.092,4.578,4.975c0,1.045-0.717,3.058-2.159,6.043c-0.615,1.253-0.922,2.119-0.922,2.596
		c0,0.776,0.481,1.164,1.451,1.164c2.764,0,7.276-4.732,13.534-14.193c0.205-0.298,0.398-0.448,0.574-0.448
		C775.281,251.019,775.379,251.108,775.379,251.288z" />
						<path class="svg_effect" fill="#008848" d="M817.714,251.288c0,0.388-2.076,2.895-6.221,7.524c-4.527,5.014-8.385,7.521-11.559,7.521
		c-2.062,0-3.825-0.799-5.298-2.392c-1.468-1.595-2.207-3.496-2.207-5.701c0-2.502,1.002-5.099,3.001-7.779
		c1.995-2.682,4.688-4.991,8.067-6.931c2.853-1.666,5.17-2.503,6.964-2.503c2.175,0,3.263,1.312,3.263,3.933
		c0,2.061-0.682,4.116-2.052,6.173c-1.363,2.056-2.723,3.082-4.077,3.082c-1.322,0-1.985-0.668-1.985-2.008
		c0-1.583,1.355-3.043,4.057-4.383c2.089-1.043,3.129-2.417,3.129-4.115c0-1.338-0.719-2.01-2.159-2.01
		c-2.437,0-5.438,2.458-8.989,7.377c-3.561,4.916-5.335,9.044-5.335,12.382c0,2.806,1.293,4.203,3.884,4.203
		c4.056,0,9.558-4.641,16.503-13.923c0.384-0.479,0.661-0.719,0.836-0.719C817.653,251.051,817.714,251.14,817.714,251.288z"
						/>
						<path class="svg_effect" fill="#008848" d="M832.881,251.288c-0.032,0.091-0.175,0.33-0.442,0.715l-1.897,2.643
		c-5.528,7.792-9.755,11.688-12.667,11.688c-1.38,0-2.533-0.499-3.462-1.498s-1.39-2.242-1.39-3.734c0-1.729,1.015-4.349,3.04-7.867
		l6.878-11.846c0.907,0.207,1.63,0.312,2.159,0.312c0.794,0,1.907-0.104,3.35-0.312l-10.007,16.676
		c-1.44,2.412-2.16,4.275-2.16,5.586c0,1.342,0.693,2.012,2.074,2.012c2.62,0,7.225-4.732,13.816-14.193
		c0.148-0.298,0.297-0.448,0.446-0.448C832.792,251.019,832.881,251.108,832.881,251.288z M832.238,232.798
		c0,1.045-0.431,2.022-1.296,2.929c-0.869,0.911-1.815,1.366-2.848,1.366c-1.318,0-1.98-0.671-1.98-2.011
		c0-0.985,0.452-1.929,1.365-2.84c0.913-0.91,1.867-1.361,2.867-1.361C831.607,230.881,832.238,231.52,832.238,232.798z" />
						<path class="svg_effect" fill="#008848" d="M849.301,241.027l-0.348,0.672h-5.774l-9.833,17.034c-1.204,2.055-1.809,3.692-1.809,4.916
		c0,1.342,0.691,2.012,2.076,2.012c2.677,0,7.195-4.732,13.55-14.193c0.21-0.298,0.385-0.448,0.534-0.448
		c0.173,0,0.262,0.089,0.262,0.269c-0.032,0.091-0.176,0.33-0.442,0.715l-1.897,2.643c-5.528,7.792-9.692,11.688-12.488,11.688
		c-1.384,0-2.537-0.507-3.466-1.519c-0.925-1.015-1.391-2.284-1.391-3.804c0-1.788,0.779-4.022,2.34-6.704l7.404-12.607h-4.498
		l0.441-0.672h4.411l5.154-8.674c0.881,0.238,1.723,0.356,2.513,0.356c0.824,0,1.678-0.118,2.56-0.356l-5.072,8.674H849.301z"
						/>
						<path class="svg_effect" fill="#008848" d="M875.78,251.332c0,0.447-1.62,2.486-4.857,6.117c-3.59,3.989-8.266,7.591-14.036,10.805l-2.16,3.936
		c-4.261,7.751-8.713,13.518-13.354,17.303c-4.791,3.904-8.949,5.855-12.479,5.855c-1.205,0-2.21-0.387-3.021-1.162
		c-0.805-0.773-1.209-1.729-1.209-2.861c0-5.99,6.804-12.191,20.412-18.599c1.112-0.567,2.789-1.357,5.024-2.37l0.663-0.403
		l7.754-13.991c-3.058,4.261-5.273,7.058-6.657,8.382c-1.38,1.325-2.775,1.99-4.185,1.99c-1.205,0-2.258-0.523-3.156-1.566
		c-0.896-1.042-1.342-2.263-1.342-3.666c0-1.696,1.041-4.349,3.127-7.959l6.791-11.623c0.678,0.12,1.457,0.181,2.338,0.181
		c0.765,0,1.821-0.104,3.176-0.312l-8.688,14.304c-2.465,4.055-3.702,6.707-3.702,7.958c0,1.342,0.606,2.012,1.812,2.012
		c3.173,0,8.052-5.706,14.631-17.122l4.056-7.021c0.678,0.12,1.498,0.181,2.468,0.181c0.794,0,1.779-0.104,2.954-0.312
		c-3.642,5.869-8.581,14.482-14.811,25.839c3.588-1.874,6.619-3.905,9.091-6.095c2.472-2.185,5.238-5.273,8.3-9.265
		c0.409-0.535,0.677-0.803,0.794-0.803C875.688,251.064,875.78,251.155,875.78,251.332z M850.321,270.712
		c-0.47,0.271-2.133,1.118-4.982,2.549c-13.371,6.736-20.061,12.788-20.061,18.153c0,2.236,1.236,3.355,3.703,3.355
		c3.12,0,6.216-1.719,9.304-5.145c3.088-3.428,6.908-9.434,11.462-18.018L850.321,270.712z" />
					</g>
					<g>
						<path class="svg_effect ecogreen" fill="#008848" d="M441.513,73.228c-1.184,0-1.375,1.057-1.512,1.826c-0.627,3.698-1.668,5.447-3.837,6.462
		c-2.287,1.063-6.122,1.063-8.416,1.063c-9.339,0-10.33-1.377-10.496-7.269c-0.064-1.895-0.037-6.676-0.019-10.515
		c0.011-1.543,0.019-2.904,0.019-3.817v-7.316c0-0.354,0.038-0.413,0.038-0.398c2.504,0,11.336,0.105,12.974,0.274
		c3.553,0.39,4.377,1.927,4.695,3.207c0.19,0.821,0.241,1.659,0.29,2.398c0.021,0.311,0.038,0.597,0.064,0.815
		c0,0.854,0.497,1.361,1.333,1.361c1.339,0,1.339-1.544,1.339-2.287c0-0.346,0.089-1.717,0.181-3.044
		c0.068-1.118,0.149-2.309,0.188-3.115c0.239-3.114,0.482-4.835,0.612-5.764c0.075-0.522,0.117-0.811,0.117-1.039
		c0-0.779-0.44-1.268-1.148-1.268c-0.657,0-1.107,0.524-1.729,1.241l-0.113,0.135c-0.713,0.8-1.979,1.046-4.072,1.22
		c-1.348,0.12-6.546,0.18-14.637,0.18c-0.051,0-0.076-0.003-0.085,0c-0.011-0.036-0.045-0.153-0.045-0.488V23.669
		c0-0.323,0.049-0.385,0.13-0.401c1.719,0,11.427,0.181,12.971,0.367c4.45,0.539,5.181,1.584,5.733,3.014
		c0.401,0.977,0.514,2.429,0.514,3.129c0,1.209,0.446,1.822,1.333,1.822c0.75,0,1.227-0.483,1.421-1.454
		c0.122-0.745,0.241-2.689,0.333-4.255c0.057-0.846,0.096-1.566,0.129-1.911c0.183-2.84,0.448-4.242,0.603-5.081
		c0.079-0.428,0.134-0.707,0.134-0.97c0-1.186-0.661-1.359-1.062-1.359c-0.363,0-0.717,0.116-1.062,0.23
		c-0.173,0.06-0.342,0.117-0.527,0.154c-0.806,0.205-2.598,0.406-3.852,0.54c-1.559,0.084-16.535,0.094-22.904,0.094
		c-1.067,0-2.707-0.067-4.614-0.142l-1.165-0.046c-1.13,0-2.335-0.021-3.57-0.043c-1.282-0.024-2.598-0.045-3.867-0.045
		c-0.883,0-2.524,0-2.524,1.356c0,1.358,1.504,1.358,2.071,1.358c1.423,0,2.843,0.106,3.472,0.264
		c2.593,0.558,3.352,1.592,3.54,4.798c0.181,2.949,0.181,5.487,0.181,19.597v16.293c0,8.473,0,15.797-0.45,19.646
		c-0.393,2.858-0.847,4.367-2.269,4.655c-1.071,0.239-3.486,0.359-4.563,0.359c-1.312,0-1.98,0.42-1.98,1.263
		c0,0.963,0.791,1.452,2.344,1.452c0.898,0,1.917-0.047,2.971-0.089c1.122-0.049,2.281-0.096,3.385-0.096
		c2.189-0.094,5.603-0.094,6.58-0.094c2.573,0,5.333,0.08,9.528,0.278l2.66,0.068c3.472,0.093,7.792,0.207,13.224,0.207
		c3.513,0,4.697,0,5.448-2.801c0.473-1.911,1.209-8.231,1.209-10.411C442.755,74.494,442.755,73.228,441.513,73.228z" />
						<path class="svg_effect ecogreen" fill="#008848" d="M862.72,73.228c-1.184,0-1.374,1.057-1.513,1.826c-0.623,3.698-1.666,5.447-3.836,6.462
		c-2.285,1.063-6.123,1.063-8.413,1.063c-9.34,0-10.332-1.377-10.496-7.269c-0.067-1.895-0.041-6.676-0.019-10.515
		c0.008-1.543,0.019-2.904,0.019-3.817v-7.316c0-0.354,0.036-0.413,0.038-0.398c2.504,0,11.331,0.105,12.974,0.274
		c3.549,0.39,4.377,1.927,4.691,3.207c0.19,0.821,0.243,1.659,0.293,2.398c0.021,0.311,0.038,0.597,0.061,0.815
		c0,0.854,0.501,1.361,1.338,1.361c1.336,0,1.336-1.544,1.336-2.287c0-0.346,0.089-1.717,0.179-3.044
		c0.071-1.118,0.148-2.309,0.19-3.115c0.241-3.114,0.481-4.835,0.611-5.764c0.076-0.522,0.119-0.811,0.119-1.039
		c0-0.779-0.44-1.268-1.152-1.268c-0.654,0-1.105,0.524-1.725,1.241l-0.114,0.135c-0.714,0.8-1.981,1.046-4.072,1.22
		c-1.35,0.12-6.545,0.18-14.638,0.18c-0.049,0-0.078-0.003-0.083,0c-0.016-0.036-0.046-0.153-0.046-0.488V23.669
		c0-0.323,0.046-0.385,0.129-0.401c1.717,0,11.426,0.181,12.97,0.367c4.452,0.539,5.184,1.584,5.736,3.014
		c0.4,0.977,0.51,2.429,0.51,3.129c0,1.209,0.446,1.822,1.333,1.822c0.753,0,1.231-0.483,1.422-1.454
		c0.122-0.745,0.24-2.689,0.335-4.255c0.054-0.846,0.096-1.566,0.131-1.911c0.184-2.84,0.447-4.242,0.602-5.081
		c0.081-0.428,0.134-0.707,0.134-0.97c0-1.186-0.663-1.359-1.063-1.359c-0.361,0-0.719,0.116-1.06,0.23
		c-0.178,0.06-0.347,0.117-0.529,0.154c-0.808,0.205-2.597,0.406-3.851,0.54c-1.562,0.084-16.537,0.094-22.907,0.094
		c-1.066,0-2.707-0.067-4.61-0.142l-1.17-0.046c-1.125,0-2.33-0.021-3.565-0.043c-1.286-0.024-2.599-0.045-3.867-0.045
		c-0.884,0-2.526,0-2.526,1.356c0,1.358,1.502,1.358,2.07,1.358c1.423,0,2.844,0.106,3.475,0.264
		c2.588,0.558,3.349,1.592,3.537,4.798c0.183,2.949,0.183,5.487,0.183,19.597v16.293c0,8.473,0,15.797-0.454,19.646
		c-0.39,2.858-0.845,4.367-2.265,4.655c-1.071,0.239-3.486,0.359-4.566,0.359c-1.313,0-1.979,0.42-1.979,1.263
		c0,0.963,0.792,1.452,2.346,1.452c0.896,0,1.917-0.047,2.971-0.089c1.121-0.049,2.282-0.096,3.381-0.096
		c2.19-0.094,5.606-0.094,6.58-0.094c2.576,0,5.334,0.08,9.532,0.278l2.659,0.068c3.473,0.093,7.794,0.207,13.222,0.207
		c3.517,0,4.698,0,5.451-2.801c0.474-1.911,1.205-8.231,1.205-10.411C863.961,74.494,863.961,73.228,862.72,73.228z" />
						<path class="svg_effect ecogreen" fill="#008848" d="M924.304,73.228c-1.184,0-1.374,1.057-1.512,1.826c-0.623,3.698-1.668,5.447-3.837,6.462
		c-2.285,1.063-6.124,1.063-8.413,1.063c-9.34,0-10.333-1.377-10.496-7.269c-0.066-1.895-0.042-6.676-0.017-10.515
		c0.007-1.543,0.017-2.904,0.017-3.817v-7.316c0-0.354,0.036-0.413,0.04-0.398c2.502,0,11.331,0.105,12.972,0.274
		c3.549,0.39,4.376,1.927,4.692,3.207c0.19,0.821,0.241,1.659,0.292,2.398c0.021,0.311,0.04,0.597,0.063,0.815
		c0,0.854,0.499,1.361,1.334,1.361c1.338,0,1.338-1.544,1.338-2.287c0-0.346,0.09-1.717,0.178-3.044
		c0.074-1.118,0.149-2.309,0.191-3.115c0.24-3.114,0.481-4.835,0.613-5.764c0.073-0.522,0.116-0.811,0.116-1.039
		c0-0.779-0.44-1.268-1.15-1.268c-0.657,0-1.104,0.524-1.726,1.241l-0.115,0.135c-0.713,0.8-1.98,1.046-4.072,1.22
		c-1.348,0.12-6.544,0.18-14.638,0.18c-0.049,0-0.077-0.003-0.081,0c-0.015-0.036-0.047-0.153-0.047-0.488V23.669
		c0-0.323,0.047-0.385,0.128-0.401c1.719,0,11.428,0.181,12.972,0.367c4.451,0.539,5.185,1.584,5.736,3.014
		c0.399,0.977,0.511,2.429,0.511,3.129c0,1.209,0.445,1.822,1.332,1.822c0.752,0,1.231-0.483,1.42-1.454
		c0.124-0.745,0.241-2.689,0.337-4.255c0.053-0.846,0.095-1.566,0.13-1.911c0.183-2.84,0.446-4.242,0.601-5.081
		c0.083-0.428,0.134-0.707,0.134-0.97c0-1.186-0.662-1.359-1.062-1.359c-0.362,0-0.718,0.116-1.061,0.23
		c-0.177,0.06-0.344,0.117-0.527,0.154c-0.807,0.205-2.598,0.406-3.852,0.54c-1.561,0.084-16.537,0.094-22.906,0.094
		c-1.067,0-2.709-0.067-4.61-0.142l-1.169-0.046c-1.127,0-2.331-0.021-3.567-0.043c-1.284-0.024-2.599-0.045-3.868-0.045
		c-0.885,0-2.525,0-2.525,1.356c0,1.358,1.504,1.358,2.072,1.358c1.42,0,2.841,0.106,3.472,0.264
		c2.591,0.558,3.349,1.592,3.54,4.798c0.182,2.949,0.182,5.487,0.182,19.597v16.293c0,8.473,0,15.797-0.456,19.646
		c-0.389,2.858-0.845,4.367-2.263,4.655c-1.072,0.239-3.487,0.359-4.567,0.359c-1.313,0-1.979,0.42-1.979,1.263
		c0,0.963,0.792,1.452,2.348,1.452c0.894,0,1.914-0.047,2.969-0.089c1.119-0.049,2.282-0.096,3.381-0.096
		c2.192-0.094,5.606-0.094,6.582-0.094c2.573,0,5.333,0.08,9.529,0.278l2.66,0.068c3.473,0.093,7.793,0.207,13.223,0.207
		c3.515,0,4.697,0,5.45-2.801c0.473-1.911,1.207-8.231,1.207-10.411C925.547,74.494,925.547,73.228,924.304,73.228z" />
						<path class="svg_effect ecogreen" fill="#008848" d="M519.232,69.561c-1.262,0-1.452,1.032-1.674,2.206c-0.352,1.565-1.508,4.099-2.973,5.727
		c-3.591,4.104-8.476,4.88-16.232,4.88c-19.165,0-28.095-18.859-28.095-31.603c0-10.59,2.6-17.895,8.186-22.985
		c4.123-3.726,9.441-5.463,16.729-5.463c7.725,0,14.978,2.184,18.068,5.439c2.033,2.102,3.3,5.075,3.396,7.943
		c0,0.744,0,2.496,1.412,2.496c1.423,0,1.527-1.537,1.593-2.535c0.094-0.95,0.119-2.732,0.138-4.622
		c0.026-1.819,0.047-3.708,0.139-5.144c0.107-1.896,0.247-3.044,0.345-3.799c0.065-0.529,0.107-0.877,0.107-1.193
		c0-0.432-0.181-1.446-1.817-1.593c-1.389-0.142-2.85-0.427-4.394-0.729c-1.472-0.287-2.995-0.582-4.667-0.804
		c-3.967-0.516-7.458-0.906-13.229-0.906c-12.543,0-21.764,3.077-29.025,9.693c-10.012,9.118-10.79,21.52-10.79,25.104
		c0,11.299,3.85,20.383,11.436,26.999c7.875,6.793,17.868,9.956,31.466,9.956c5.418,0,12.608-0.557,16.526-2.112
		c1.653-0.676,2.146-1.224,2.658-2.944c0.896-3.028,2.02-10.914,2.02-12.146C520.556,69.742,519.627,69.561,519.232,69.561z"
						/>
						<path class="svg_effect ecogreen" fill="#008848" d="M570.792,16.877c-26.105,0-38,18.596-38,35.875c0,17.282,11.61,35.877,37.092,35.877
		c22.424,0,38.087-15.422,38.087-37.501C607.973,30.002,593.725,16.877,570.792,16.877z M573.698,83.095
		c-16.114,0-27.367-13.628-27.367-33.139c0-24.123,13.676-27.723,21.827-27.723c15.363,0,26.096,13.253,26.096,32.234
		C594.254,80.301,579.876,83.095,573.698,83.095z" />
						<path class="svg_effect ecogreen" fill="#008848" d="M726.726,52.511c-1.529,0-3.536,0.071-5.482,0.137c-1.935,0.071-3.76,0.136-5.135,0.136
		c-1.169,0-2.884-0.05-4.866-0.109c-2.626-0.077-5.608-0.163-8.295-0.163c-0.783,0-2.415,0-2.415,1.414
		c0,0.563,0.323,1.234,1.867,1.234c1.412,0,2.814,0.106,3.438,0.26c2.594,0.548,3.416,1.638,3.502,4.659
		c0.088,2.694,0.088,6.195,0.088,10.627v8.479c0,1.568-0.414,2.402-1.427,2.872c-2.076,0.947-5.215,0.947-7.508,0.947
		c-18.302,0-31.085-13.734-31.085-33.408c0-10.024,2.67-17.121,8.166-21.706c5.846-4.813,11.939-5.476,17.654-5.476
		c10.589,0,17.636,4.495,19.876,6.875c2.343,2.499,2.724,5.443,2.954,7.201c0.056,0.444,0.205,1.618,1.406,1.618
		c1.504,0,1.504-1.565,1.504-2.403c0-8.671,0.373-12.091,0.552-13.733c0.051-0.501,0.085-0.826,0.085-1.063
		c0-1.018-0.517-1.494-1.755-1.595c-2.228-0.096-5.71-0.725-7.096-0.986c-2.021-0.4-10.046-1.45-16.165-1.45
		c-7.153,0-15.554,0.456-24.68,5.934c-10.039,6.033-16.037,17.227-16.037,29.941c0,26.452,21.927,35.877,42.439,35.877
		c4.27,0,14.966-0.4,22.132-4.125c1.338-0.774,1.436-1.229,1.436-3.693v-9.924c0-4.533,0-8.114,0.089-10.809
		c0.084-3.004,0.906-4.264,3.026-4.655c1.121-0.187,1.701-0.264,2.369-0.264c1.564,0,1.685-0.943,1.685-1.234
		C729.048,52.511,727.423,52.511,726.726,52.511z" />
						<path class="svg_effect ecogreen" fill="#008848" d="M812.922,85.903c-0.696,0-1.487-0.089-2.59-0.29c-1.374-0.277-5.036-1.003-9.979-6.154
		c-4.701-4.972-10.038-11.748-16.801-20.326l-2.89-3.674c8.395-6.959,11.985-13.229,11.985-20.901c0-6.903-4.263-11.633-6.51-13.173
		c-5.226-3.6-11.671-4.082-17.288-4.082c-1.403,0-3.759,0.063-6.252,0.132c-2.543,0.07-5.174,0.144-6.777,0.144
		c-0.745,0-2.068-0.042-3.689-0.094c-2.651-0.084-5.953-0.182-8.968-0.182c-0.888,0-2.545,0-2.545,1.363
		c0,1.361,1.512,1.361,2.084,1.361c1.434,0,2.865,0.11,3.496,0.266c2.613,0.558,3.38,1.597,3.569,4.818
		c0.181,2.958,0.181,5.512,0.181,19.674v16.359c0,8.508,0,15.862-0.459,19.724c-0.39,2.87-0.851,4.385-2.278,4.677
		c-1.076,0.238-2.128,0.358-3.216,0.358c-1.32,0-1.989,0.423-1.989,1.27c0,0.967,0.79,1.456,2.355,1.456c2.2,0,5.16-0.1,7.534-0.178
		c1.641-0.055,3.029-0.104,3.744-0.104c0.464,0,1.544,0.038,2.979,0.074c2.803,0.082,7.043,0.207,10.602,0.207
		c1.566,0,2.362-0.489,2.362-1.456c0-0.615-0.425-1.27-1.624-1.27c-1.081,0-3.118-0.193-4.463-0.369
		c-2.297-0.307-2.865-1.808-3.159-4.655c-0.457-3.872-0.457-11.263-0.457-19.828V59.75c0-0.134,0.024-0.186,0.022-0.186
		c0.009-0.006,0.051-0.029,0.192-0.029l8.052,0.184c0.572,0,0.947,0.074,1.274,0.475c0.677,0.785,2.397,3.246,4.387,6.096
		c1.493,2.139,3.165,4.524,4.731,6.698c5.428,7.502,8.899,11.699,12.832,13.815c2.551,1.381,5.012,1.826,10.129,1.826h8.775
		c0.679,0,2.27,0,2.27-1.456C814.545,86.558,814.115,85.903,812.922,85.903z M780.714,39.209c0,8.396-3.277,12.07-5.232,13.51
		c-1.559,1.135-2.622,1.482-6.261,1.482c-2.607,0-5.174-0.337-6.823-0.884c-0.367-0.161-0.518-0.266-0.518-1.192V23.868
		c0-0.608,0.12-0.693,0.463-0.792c0.794-0.239,2.303-0.354,4.754-0.354C772.153,22.722,780.714,26.196,780.714,39.209z" />
						<path class="svg_effect ecogreen" fill="#008848" d="M1007.266,16.877c-3.031,0-5.573,0.118-7.251,0.2c-0.769,0.038-1.333,0.067-1.647,0.067
		c-0.739,0-1.842-0.039-3.192-0.092c-2.179-0.078-4.896-0.176-7.794-0.176c-1.138,0-2.861,0-2.861,1.32
		c0,1.325,1.466,1.325,1.953,1.325c1.254,0,3.355,0,4.619,0.5c1.809,0.749,2.685,2.086,2.774,7.659l0.89,40.984
		c-1.02-1.021-3.315-3.413-6.11-6.326c-4.408-4.595-9.9-10.315-13.44-13.834c-13.395-13.217-27.299-27.786-28.131-28.675
		c-0.307-0.323-0.585-0.633-0.843-0.912c-1.079-1.186-1.86-2.042-2.875-2.042c-1.688,0-1.688,2.6-1.688,3.572l-0.82,54.548
		c-0.087,7.616-0.435,10.084-2.443,10.698c-1.325,0.377-3.043,0.438-3.952,0.438c-1.293,0-1.954,0.411-1.954,1.231
		c0,1.411,1.564,1.411,2.505,1.411c3.343,0,6.438-0.137,8.285-0.215c0.75-0.031,1.284-0.057,1.518-0.057
		c0.601,0,1.432,0.036,2.514,0.075c2.068,0.086,4.899,0.196,8.74,0.196c0.779,0,2.597,0,2.597-1.411c0-1.231-1.544-1.231-2.05-1.231
		c-1.32,0-3.031-0.074-4.557-0.606c-1.216-0.424-2.637-1.894-2.838-9.546l-0.974-37.994c0.272,0.282,0.596,0.633,0.974,1.042
		c3.553,3.808,11.863,12.732,20.022,20.769c3.849,3.787,8.057,7.993,12.081,12.014c5.815,5.812,11.314,11.305,14.695,14.509
		c1.091,1.076,2.247,2.132,3.442,2.132c1.685,0,1.685-2.318,1.685-3.302l1-58.192c0.084-4.938,0.759-6.549,2.973-7.18
		c1.029-0.255,1.725-0.255,2.605-0.255c1.766,0,2.139-0.722,2.139-1.325C1009.855,16.877,1008.23,16.877,1007.266,16.877z"
						/>
					</g>
					<g>
						<linearGradient id="SVGID_1_" gradientUnits="userSpaceOnUse" x1="471.8965" y1="569.3711" x2="918.0435" y2="123.2242">
							<stop offset="0" style="stop-color:#FFC332" />
							<stop offset="0.0415" style="stop-color:#FFC536" />
							<stop offset="0.0805" style="stop-color:#FFCB41" />
							<stop offset="0.1184" style="stop-color:#FFD454" />
							<stop offset="0.15" style="stop-color:#FFDF6A" />
							<stop offset="0.5" style="stop-color:#D28A2B" />
							<stop offset="0.5053" style="stop-color:#D48E2B" />
							<stop offset="0.5524" style="stop-color:#E7A82E" />
							<stop offset="0.6002" style="stop-color:#F4BC30" />
							<stop offset="0.649" style="stop-color:#FCC731" />
							<stop offset="0.7" style="stop-color:#FFCB31" />
							<stop offset="0.7007" style="stop-color:#FFCB31" />
							<stop offset="0.7457" style="stop-color:#FFD44A" />
							<stop offset="0.7924" style="stop-color:#FFDA5C" />
							<stop offset="0.8423" style="stop-color:#FFDE67" />
							<stop offset="0.9" style="stop-color:#FFDF6A" />
						</linearGradient>
						<path class="svg_effect saigon" fill="url(#SVGID_1_)" d="M920.537,120.783c-3.029,0-5.57,0.12-7.248,0.196c-0.771,0.042-1.333,0.068-1.649,0.068
		c-0.738,0-1.841-0.039-3.193-0.089c-2.176-0.08-4.895-0.176-7.792-0.176c-1.139,0-2.861,0-2.861,1.32
		c0,1.324,1.467,1.324,1.954,1.324c1.254,0,3.353,0,4.618,0.501c1.808,0.749,2.685,2.086,2.775,7.657l0.889,40.987
		c-1.021-1.025-3.315-3.412-6.109-6.33c-4.409-4.593-9.901-10.314-13.44-13.831c-13.396-13.22-27.301-27.785-28.131-28.675
		c-0.307-0.325-0.587-0.635-0.844-0.911c-1.08-1.188-1.861-2.043-2.875-2.043c-1.686,0-1.686,2.6-1.686,3.569l-0.822,54.551
		c-0.086,7.613-0.436,10.084-2.443,10.698c-1.325,0.376-3.044,0.435-3.951,0.435c-1.296,0-1.955,0.414-1.955,1.233
		c0,1.413,1.565,1.413,2.503,1.413c3.346,0,6.44-0.137,8.285-0.215c0.752-0.034,1.286-0.058,1.52-0.058
		c0.599,0,1.433,0.034,2.516,0.074c2.066,0.088,4.896,0.198,8.739,0.198c0.779,0,2.594,0,2.594-1.413
		c0-1.233-1.544-1.233-2.048-1.233c-1.322,0-3.031-0.069-4.559-0.604c-1.214-0.426-2.636-1.896-2.835-9.546l-0.975-37.996
		c0.272,0.287,0.595,0.635,0.975,1.043c3.551,3.811,11.862,12.732,20.022,20.77c3.846,3.789,8.054,7.992,12.08,12.011
		c5.815,5.818,11.313,11.31,14.696,14.513c1.091,1.077,2.246,2.128,3.441,2.128c1.685,0,1.685-2.317,1.685-3.298l1-58.192
		c0.085-4.94,0.759-6.549,2.971-7.18c1.032-0.256,1.727-0.256,2.605-0.256c1.769,0,2.139-0.721,2.139-1.324
		C923.127,120.783,921.505,120.783,920.537,120.783z" />
						<linearGradient id="SVGID_2_" gradientUnits="userSpaceOnUse" x1="448.2529" y1="183.0088" x2="996.3785" y2="-365.1168">
							<stop offset="0" style="stop-color:#FFC332" />
							<stop offset="0.0415" style="stop-color:#FFC536" />
							<stop offset="0.0805" style="stop-color:#FFCB41" />
							<stop offset="0.1184" style="stop-color:#FFD454" />
							<stop offset="0.15" style="stop-color:#FFDF6A" />
							<stop offset="0.5" style="stop-color:#D28A2B" />
							<stop offset="0.5053" style="stop-color:#D48E2B" />
							<stop offset="0.5524" style="stop-color:#E7A82E" />
							<stop offset="0.6002" style="stop-color:#F4BC30" />
							<stop offset="0.649" style="stop-color:#FCC731" />
							<stop offset="0.7" style="stop-color:#FFCB31" />
							<stop offset="0.7007" style="stop-color:#FFCB31" />
							<stop offset="0.7457" style="stop-color:#FFD44A" />
							<stop offset="0.7924" style="stop-color:#FFDA5C" />
							<stop offset="0.8423" style="stop-color:#FFDE67" />
							<stop offset="0.9" style="stop-color:#FFDF6A" />
						</linearGradient>
						<path class="svg_effect saigon" fill="url(#SVGID_2_)" d="M479.211,149.353l-3.06-1.894c-8.583-5.377-11.341-8.431-11.341-12.576
		c0-5.337,4.868-8.783,12.401-8.783c6.625,0,9.704,2.417,11.445,4.232c2.244,2.292,2.702,5.023,2.702,5.633
		c0,1.769,0.926,2.137,1.7,2.137c1.813,0,1.813-2.018,1.813-3.219c0-4.978,0.218-7.71,0.346-9.337
		c0.053-0.67,0.089-1.145,0.089-1.489c0-1.218-1.407-1.469-1.981-1.579c-3.246-0.724-7.847-1.55-14.694-1.55
		c-15.227,0-25.858,7.224-25.858,17.565c0,7.846,4.908,14.36,16.417,21.786l5.021,3.244c8.73,5.642,10.479,9.548,10.479,14.032
		c0,4.738-4.919,9.771-14.037,9.771c-4.445,0-12.309-1.138-15.054-8.747c-0.559-1.586-0.952-3.417-0.952-4.454
		c0-1.358-0.575-2.047-1.704-2.047c-1.689,0-1.856,2.049-1.918,2.826l-0.019,0.279c-0.129,1.695-0.529,6.87-0.529,11.569
		c0,2.159,0.456,2.822,2.445,3.54c4.586,1.674,9.432,2.389,16.202,2.389c7.098,0,12.891-1.238,17.705-3.782
		c9.186-4.947,10.554-12.229,10.554-16.128C497.382,163.925,492.456,157.576,479.211,149.353z" />
						<linearGradient id="SVGID_3_" gradientUnits="userSpaceOnUse" x1="348.6055" y1="425.4375" x2="1106.9602" y2="-332.9172">
							<stop offset="0" style="stop-color:#FFC332" />
							<stop offset="0.0415" style="stop-color:#FFC536" />
							<stop offset="0.0805" style="stop-color:#FFCB41" />
							<stop offset="0.1184" style="stop-color:#FFD454" />
							<stop offset="0.15" style="stop-color:#FFDF6A" />
							<stop offset="0.5" style="stop-color:#D28A2B" />
							<stop offset="0.5053" style="stop-color:#D48E2B" />
							<stop offset="0.5524" style="stop-color:#E7A82E" />
							<stop offset="0.6002" style="stop-color:#F4BC30" />
							<stop offset="0.649" style="stop-color:#FCC731" />
							<stop offset="0.7" style="stop-color:#FFCB31" />
							<stop offset="0.7007" style="stop-color:#FFCB31" />
							<stop offset="0.7457" style="stop-color:#FFD44A" />
							<stop offset="0.7924" style="stop-color:#FFDA5C" />
							<stop offset="0.8423" style="stop-color:#FFDE67" />
							<stop offset="0.9" style="stop-color:#FFDF6A" />
						</linearGradient>
						<path class="svg_effect saigon" fill="url(#SVGID_3_)" d="M630.499,190.187c-1.354,0-3.317-0.185-4.563-0.372c-2.359-0.328-2.924-1.653-3.193-4.14
		c-0.361-4.027-0.361-11.334-0.361-20.579v-16.585c0-14.354,0-16.944,0.183-19.947c0.179-3.295,0.895-4.481,2.934-4.874
		c1.06-0.176,1.757-0.275,2.647-0.275c0.478,0,1.949,0,1.949-1.472c0-1.291-1.748-1.291-2.407-1.291
		c-1.915,0-4.419,0.086-6.633,0.167c-1.768,0.06-3.435,0.115-4.44,0.115c-1.223,0-3.127-0.058-5.141-0.123
		c-2.37-0.08-4.815-0.159-6.664-0.159c-0.936,0-2.683,0-2.683,1.291c0,1.472,1.474,1.472,1.959,1.472
		c1.22,0,2.304,0.128,3.159,0.368c1.742,0.411,2.521,1.798,2.69,4.786c0.179,2.998,0.179,5.588,0.179,19.942v16.585
		c0,9.245,0,16.548-0.451,20.479c-0.287,2.886-0.852,3.958-2.234,4.244c-1.063,0.25-2.096,0.367-3.166,0.367
		c-1.297,0-1.954,0.434-1.954,1.292c0,0.978,0.78,1.472,2.318,1.472c2.073,0,4.788-0.088,7.187-0.165
		c1.805-0.063,3.358-0.118,4.256-0.118c0.953,0,2.4,0.048,4.164,0.099c2.82,0.086,6.334,0.185,9.996,0.185
		c2.01,0,2.225-1.032,2.225-1.472C632.453,190.996,632.203,190.187,630.499,190.187z" />
						<linearGradient id="SVGID_4_" gradientUnits="userSpaceOnUse" x1="512.4751" y1="348.4434" x2="874.6344" y2="-13.716">
							<stop offset="0" style="stop-color:#FFC332" />
							<stop offset="0.0415" style="stop-color:#FFC536" />
							<stop offset="0.0805" style="stop-color:#FFCB41" />
							<stop offset="0.1184" style="stop-color:#FFD454" />
							<stop offset="0.15" style="stop-color:#FFDF6A" />
							<stop offset="0.5" style="stop-color:#D28A2B" />
							<stop offset="0.5053" style="stop-color:#D48E2B" />
							<stop offset="0.5524" style="stop-color:#E7A82E" />
							<stop offset="0.6002" style="stop-color:#F4BC30" />
							<stop offset="0.649" style="stop-color:#FCC731" />
							<stop offset="0.7" style="stop-color:#FFCB31" />
							<stop offset="0.7007" style="stop-color:#FFCB31" />
							<stop offset="0.7457" style="stop-color:#FFD44A" />
							<stop offset="0.7924" style="stop-color:#FFDA5C" />
							<stop offset="0.8423" style="stop-color:#FFDE67" />
							<stop offset="0.9" style="stop-color:#FFDF6A" />
						</linearGradient>
						<path class="svg_effect saigon" fill="url(#SVGID_4_)" d="M734.304,156.563c-1.525,0-3.539,0.07-5.488,0.137c-1.929,0.071-3.754,0.134-5.131,0.134
		c-1.169,0-2.88-0.052-4.865-0.108c-2.631-0.075-5.607-0.162-8.298-0.162c-0.781,0-2.414,0-2.414,1.414
		c0,0.563,0.326,1.232,1.87,1.232c1.408,0,2.813,0.104,3.438,0.261c2.595,0.547,3.409,1.636,3.502,4.66
		c0.09,2.694,0.09,6.197,0.09,10.626v8.479c0,1.569-0.416,2.402-1.429,2.875c-2.082,0.944-5.218,0.944-7.508,0.944
		c-18.304,0-31.085-13.733-31.085-33.405c0-10.023,2.67-17.123,8.165-21.71c5.846-4.813,11.94-5.477,17.652-5.477
		c10.591,0,17.639,4.499,19.878,6.877c2.339,2.5,2.721,5.444,2.955,7.198c0.054,0.445,0.205,1.621,1.408,1.621
		c1.502,0,1.502-1.565,1.502-2.408c0-8.671,0.373-12.088,0.546-13.727c0.057-0.504,0.089-0.826,0.089-1.066
		c0-1.02-0.52-1.495-1.755-1.595c-2.229-0.096-5.702-0.725-7.096-0.983c-2.017-0.399-10.044-1.452-16.163-1.452
		c-7.153,0-15.554,0.458-24.675,5.935c-10.045,6.033-16.047,17.228-16.047,29.942c0,26.449,21.928,35.877,42.444,35.877
		c4.269,0,14.966-0.402,22.132-4.131c1.338-0.77,1.436-1.225,1.436-3.69v-9.921c0-4.531,0-8.115,0.087-10.814
		c0.086-3.001,0.907-4.26,3.03-4.649c1.115-0.188,1.693-0.267,2.367-0.267c1.563,0,1.685-0.943,1.685-1.232
		C736.626,156.563,734.999,156.563,734.304,156.563z" />
						<linearGradient id="SVGID_5_" gradientUnits="userSpaceOnUse" x1="549.0195" y1="398.7207" x2="883.1096" y2="64.6306">
							<stop offset="0" style="stop-color:#FFC332" />
							<stop offset="0.0415" style="stop-color:#FFC536" />
							<stop offset="0.0805" style="stop-color:#FFCB41" />
							<stop offset="0.1184" style="stop-color:#FFD454" />
							<stop offset="0.15" style="stop-color:#FFDF6A" />
							<stop offset="0.5" style="stop-color:#D28A2B" />
							<stop offset="0.5053" style="stop-color:#D48E2B" />
							<stop offset="0.5524" style="stop-color:#E7A82E" />
							<stop offset="0.6002" style="stop-color:#F4BC30" />
							<stop offset="0.649" style="stop-color:#FCC731" />
							<stop offset="0.7" style="stop-color:#FFCB31" />
							<stop offset="0.7007" style="stop-color:#FFCB31" />
							<stop offset="0.7457" style="stop-color:#FFD44A" />
							<stop offset="0.7924" style="stop-color:#FFDA5C" />
							<stop offset="0.8423" style="stop-color:#FFDE67" />
							<stop offset="0.9" style="stop-color:#FFDF6A" />
						</linearGradient>
						<path class="svg_effect saigon" fill="url(#SVGID_5_)" d="M791.585,120.928c-26.105,0-37.994,18.595-37.994,35.877c0,17.277,11.602,35.877,37.087,35.877
		c22.426,0,38.084-15.424,38.084-37.501C828.762,134.051,814.519,120.928,791.585,120.928z M794.491,187.147
		c-16.113,0-27.366-13.628-27.366-33.141c0-24.121,13.676-27.724,21.824-27.724c15.369,0,26.1,13.256,26.1,32.236
		C815.049,184.354,800.673,187.147,794.491,187.147z" />
						<linearGradient id="SVGID_6_" gradientUnits="userSpaceOnUse" x1="478.7427" y1="243.7837" x2="814.6857" y2="-92.1594">
							<stop offset="0" style="stop-color:#FFC332" />
							<stop offset="0.0415" style="stop-color:#FFC536" />
							<stop offset="0.0805" style="stop-color:#FFCB41" />
							<stop offset="0.1184" style="stop-color:#FFD454" />
							<stop offset="0.15" style="stop-color:#FFDF6A" />
							<stop offset="0.5" style="stop-color:#D28A2B" />
							<stop offset="0.5053" style="stop-color:#D48E2B" />
							<stop offset="0.5524" style="stop-color:#E7A82E" />
							<stop offset="0.6002" style="stop-color:#F4BC30" />
							<stop offset="0.649" style="stop-color:#FCC731" />
							<stop offset="0.7" style="stop-color:#FFCB31" />
							<stop offset="0.7007" style="stop-color:#FFCB31" />
							<stop offset="0.7457" style="stop-color:#FFD44A" />
							<stop offset="0.7924" style="stop-color:#FFDA5C" />
							<stop offset="0.8423" style="stop-color:#FFDE67" />
							<stop offset="0.9" style="stop-color:#FFDF6A" />
						</linearGradient>
						<path class="svg_effect saigon" fill="url(#SVGID_6_)" d="M584.101,189.733c-0.892,0-2.255-0.063-3.7-0.35c-1.973-0.473-4.42-1.992-7.64-9.673
		c-3.153-7.56-8.818-21.648-13.813-34.076c-4.134-10.287-7.706-19.167-8.702-21.471c-0.949-2.189-1.594-3.235-2.728-3.235
		c-1.313,0-1.967,1.436-3.01,3.979l-22.79,56.732c-1.93,4.865-3.593,7.429-7.309,7.915c-0.683,0.087-1.929,0.179-2.75,0.179
		c-1.06,0-1.595,0.423-1.595,1.255c0,1.434,1.508,1.434,2.227,1.434c3.244,0,6.548-0.125,8.73-0.213
		c0.966-0.037,1.673-0.063,1.982-0.063c1.39,0,3.082,0.072,4.718,0.134c1.687,0.067,3.43,0.142,4.902,0.142
		c0.561,0,2.052,0,2.052-1.434c0-1.255-1.169-1.255-1.867-1.255h-1.361c-2.756,0-3.125-1.172-3.125-2.316
		c0-0.987,0.412-3.095,1.327-5.391l15.539-40.963c0.006-0.012,0.006-0.026,0.011-0.037l17.646,47.234
		c0.145,0.342,0.154,0.669,0.026,0.936c-0.126,0.271-0.348,0.419-0.431,0.448c-0.599,0.062-1.724,0.176-1.724,1.344
		c0,1.08,1.24,1.143,2.813,1.23l0.399,0.021c7.273,0.182,13.96,0.182,17.176,0.182c3.074,0,4.678-0.065,4.678-1.434
		C585.784,189.733,584.604,189.733,584.101,189.733z" />
					</g>
					<linearGradient id="SVGID_7_" gradientUnits="userSpaceOnUse" x1="75.915" y1="293.5195" x2="324.061" y2="45.3736">
						<stop offset="0" style="stop-color:#FFC332" />
						<stop offset="0.0415" style="stop-color:#FFC536" />
						<stop offset="0.0805" style="stop-color:#FFCB41" />
						<stop offset="0.1184" style="stop-color:#FFD454" />
						<stop offset="0.15" style="stop-color:#FFDF6A" />
						<stop offset="0.5" style="stop-color:#D28A2B" />
						<stop offset="0.5053" style="stop-color:#D48E2B" />
						<stop offset="0.5524" style="stop-color:#E7A82E" />
						<stop offset="0.6002" style="stop-color:#F4BC30" />
						<stop offset="0.649" style="stop-color:#FCC731" />
						<stop offset="0.7" style="stop-color:#FFCB31" />
						<stop offset="0.7007" style="stop-color:#FFCB31" />
						<stop offset="0.7457" style="stop-color:#FFD44A" />
						<stop offset="0.7924" style="stop-color:#FFDA5C" />
						<stop offset="0.8423" style="stop-color:#FFDE67" />
						<stop offset="0.9" style="stop-color:#FFDF6A" />
					</linearGradient>
					<path class="svg_effect saigon" fill="url(#SVGID_7_)" d="M372.712,217.964c-0.516-0.501-1.239-0.781-1.941-0.744c-1.646,0.057-21.304,0.764-50.143,2.138
	v-58.134c0.02-0.47,0.57-10.971,12.734-14.674c5.46-1.662,7.574-4.963,8.383-7.44c1.356-4.149,0.042-8.876-1.977-12.02
	c6.389-7.548,9.754-17.989,9.426-26.572c-0.65-17.219-12.142-27.808-19.006-34.136c-2.134-1.967-6-3.389-9.433-1.84
	c-2.453,1.1-5.379,3.98-5.379,11.453v36.438c-5.905-2.958-10.383-6.772-11.331-14.555c-2.386-19.565,16.105-53.129,16.292-53.466
	c0.658-1.188,0.33-2.69-0.767-3.479c-1.097-0.787-2.605-0.611-3.491,0.414c-0.483,0.558-11.943,13.863-20.27,30.745
	c-11.375,23.071-11.111,41.542,0.765,53.416c6.929,6.931,13.336,10.037,18.802,11.099v83.001
	c-14.94,0.724-32.023,1.612-50.198,2.671v-37.242c10.901-6.773,17.939-17.671,18.483-28.765c0.207-4.295-0.61-8.342-2.308-12.019
	c2.933-3.42,4.74-7.101,5.313-11.037c1.031-7.065-1.826-14.391-8.483-21.769c-3.794-4.211-7.625-7.624-11.006-10.637
	c-0.691-0.616-1.347-1.206-1.999-1.795v-40.32l-0.049-4.822c-0.01-0.992-0.563-1.896-1.434-2.347
	c-0.872-0.446-1.916-0.369-2.713,0.203c-0.912,0.658-22.356,16.395-22.31,39.863c0.028,13.498,7.17,26.55,21.252,38.905V153.8
	c-4.48,3.639-7.821,7.754-8.44,12.684c-0.697,5.489,2.02,11.262,8.44,18.081v38.023c-15.98,0.949-32.68,2.022-49.401,3.229v-65.539
	c9.892-6.827,14.113-12.998,12.908-18.841c-0.966-4.67-6.151-7.386-12.908-10.543v-14.823c0.149-0.032,0.295-0.068,0.438-0.106
	c12.212-3.193,22.708-25.049,24.851-43.46c0.49-4.217,0.773-10.286-2.391-14.295c-1.667-2.115-4.034-3.348-7.033-3.666
	c-4.164-0.449-7.851,0.789-10.937,3.651c-10.452,9.697-10.194,35.794-10.179,36.862v15.373c-1.551-0.725-3.035-2.099-4.475-4.138
	c-11.396-16.108-7.4-57.84,7.124-74.42c5.729-6.542,12.162-7.886,19.13-3.989c0.989,0.556,2.219,0.404,3.047-0.375
	c0.833-0.778,1.078-2.006,0.614-3.052c-0.062-0.14-6.457-13.849-27.464-4.803c-17.187,7.396-37.047,43.223-29.057,82.525
	c3.823,18.793,19.199,26.595,31.081,32.134v91.884c-20.956,1.542-39.212,3.092-55.141,4.635c0.088-0.265,0.164-0.537,0.164-0.83
	v-69.378c7.638-2.772,13.063-15.067,13.815-25.621c0.508-7.116-1.721-12.723-5.814-14.633c-3.039-1.417-6.485-0.521-9.453,2.461
	c-4.111,4.133-3.84,12.964-3.799,13.837v18.68c-2.952-1.463-5.479-5.686-6.909-8.52c-2.38-4.722-3.333-10.857-3.24-17.537
	c7.677-4.374,17.648-16.41,29.767-35.965c6.021-9.716,4.697-17.483,0.717-20.871c-3.2-2.722-9.455-3.597-16.55,2.917
	c-8.892,8.166-17.688,30.571-18.939,50.338c-0.689,0.164-1.143,0.136-1.395,0.089c-1.44-0.266-2.137-2.292-2.466-3.943
	c-2.514-12.575,7.124-41.667,23.281-52.413c1.212-0.807,1.551-2.457,0.757-3.687c-0.794-1.231-2.426-1.576-3.637-0.768
	c-18.088,12.028-28.396,43.657-25.545,57.926c1.242,6.225,4.712,7.762,6.668,8.124c0.701,0.131,1.427,0.155,2.19,0.079
	c0.077,6.838,1.203,13.142,3.724,18.137c3.995,7.924,8.112,10.928,11.58,11.716v69.03c0,0.478,0.158,0.902,0.375,1.292
	c-19.024,1.894-34.558,3.774-47.245,5.608v-55.649c0-14.085,7.427-26.451,12.339-34.634c1.856-3.09,3.321-5.529,3.98-7.41
	c1.478-4.221,0.595-7.31-0.405-9.156c-2.364-4.363-7.303-5.806-8.765-6.144c-2.467-0.571-4.861-1.515-7.149-2.747V96.804
	c11.467-4.264,21.807-9.743,25.644-18.579c3.251-7.492,1.369-16.868-4.479-22.295c-3.232-3.002-12.565-8.975-29.322,0.381
	c-12.896,7.196-19.067,20.174-16.935,35.605c0.353,2.533,0.912,5.018,1.659,7.432c-4.691,2.549-7.661,6.418-8.496,11.195
	c-1.483,8.443,4.055,18.506,14.816,26.917c11.247,8.792,11.842,25.085,11.861,27.592v72.635C41.72,245.534,41.7,252.47,41.7,256.098
	c0,10.54,18.591,17.469,116.664,23.897c0.057,0.003,0.117,0.005,0.173,0.005c1.371,0,2.528-1.082,2.617-2.491
	c0.092-1.47-1.005-2.737-2.451-2.83c-27.641-1.812-111.752-7.323-111.752-18.582c0-1.323,4.466-13.253,159.097-24.618
	c80.087-5.885,161.483-8.813,164.908-8.938c1.414-0.049,2.584-1.228,2.584-2.663C373.539,219.155,373.226,218.466,372.712,217.964z
	 M320.628,75.995c0-3.541,0.821-5.941,2.252-6.583c1.176-0.523,2.841,0.052,3.778,0.914c6.254,5.765,16.722,15.412,17.29,30.398
	c0.268,7.07-2.523,15.895-7.713,22.343c-3.944-3.474-9.016-5.564-13.957-7.6c-0.555-0.227-1.106-0.455-1.65-0.68V75.995z
	 M320.628,120.537c4.474,1.843,8.739,3.633,11.911,6.331c-1.593,1.343-3.334,2.47-5.213,3.31c-2.174,0.974-4.413,1.5-6.698,1.582
	V120.537z M320.628,137.051c3.634-0.094,6.637-1.024,8.816-2c2.346-1.047,4.503-2.44,6.464-4.092
	c0.886,1.787,1.563,4.31,0.854,6.473c-0.61,1.859-2.262,3.211-4.912,4.018c-5.068,1.543-8.688,4.15-11.223,7.053V137.051z
	 M300.264,121.716c-14.135-14.133-5.884-36.955,3.911-54.066c-3.64,10.246-6.455,21.733-5.343,30.881
	c1.381,11.317,8.785,16.246,16.545,19.771v12.892C310.43,129.967,305.337,126.79,300.264,121.716z M278.415,156.008
	c-0.41,8.41-5.375,16.761-13.236,22.62v-22.164c1.813-1.327,3.943-2.724,6.415-4.213c2.14-1.291,4.041-2.644,5.737-4.048
	C278.308,151.016,278.528,153.729,278.415,156.008z M274.309,115.042c5.543,6.139,7.951,11.992,7.164,17.397
	c-0.353,2.428-1.396,4.768-3.043,7.016c-1.673-2.186-3.691-4.193-6.12-5.93c-2.548-1.821-4.927-3.655-7.131-5.499v-21.901
	C268.158,108.793,271.214,111.607,274.309,115.042z M259.926,61.562v32.395c-3.532-3.8-5.965-7.73-6.8-13.247
	C251.82,72.077,256.758,65.065,259.926,61.562z M243.925,91.611c-0.016-5.811,1.555-11.14,3.814-15.816
	c-0.147,1.821-0.105,3.73,0.195,5.723c1.34,8.836,6.089,14.366,11.991,19.853v21.931C249.33,113.005,243.96,102.387,243.925,91.611z
	 M265.179,134.822c1.317,1.023,2.687,2.042,4.105,3.056c2.402,1.718,4.196,3.578,5.54,5.479c-1.677,1.488-3.626,2.933-5.919,4.316
	c-1.262,0.762-2.51,1.542-3.727,2.341V134.822z M256.691,167.161c0.25-1.99,1.321-3.983,3.234-6.095v15.264
	C257.444,172.838,256.356,169.802,256.691,167.161z M152.354,79.322c2.549-2.339,5.174-3.601,7.231-3.601
	c0.945,0,1.773,0.266,2.417,0.815c2.235,1.898,2.336,7.303-1.787,13.957c-11.985,19.339-19.935,28.167-24.909,32.151
	C137.15,105.262,144.811,86.252,152.354,79.322z M152.544,126.616c0.631-0.638,1.74-1.565,2.826-1.565
	c0.244,0,0.491,0.046,0.732,0.159c1.657,0.771,3.139,4.252,2.77,9.409c-0.589,8.273-4.436,16.844-8.578,19.994v-18.063
	C150.174,133.704,150.677,128.488,152.544,126.616z M104.154,129.101c1.896,0.439,4.289,1.595,5.33,3.516
	c0.712,1.315,0.732,2.889,0.06,4.811c-0.476,1.361-1.884,3.706-3.515,6.422c-2.29,3.817-5.292,8.863-7.854,14.72v-31.504
	C100.116,127.933,102.114,128.628,104.154,129.101z M92.923,117.574c-4.788-3.907-8.807-9.162-11.467-15.221l2.336-0.739
	c3.003-0.946,6.081-1.916,9.131-2.947V117.574z M106.796,56.544c3.565,0,6.615,1.102,8.999,3.314
	c4.166,3.868,5.552,10.842,3.217,16.22c-2.869,6.61-11.331,11.299-20.837,15.018V58.38
	C101.278,57.204,104.188,56.544,106.796,56.544z M92.55,60.976c0.128-0.071,0.248-0.118,0.373-0.187v32.245
	c-3.609,1.26-7.25,2.41-10.689,3.495l-2.608,0.825c-0.599-2.008-1.052-4.076-1.338-6.177C76.47,78.056,81.672,67.049,92.55,60.976z
	 M84.266,133.241c-9.18-7.174-13.986-15.313-12.853-21.765c0.595-3.386,2.754-5.622,5.206-7.093
	c3.59,8.2,9.375,15.199,16.304,19.782v19.57C90.909,139.948,88.127,136.26,84.266,133.241z M218.287,142.527
	c0.601,2.897-2.133,6.801-7.763,11.187V136.78C214.527,138.73,217.91,140.689,218.287,142.527z M219,62.125
	c1.693-1.569,3.592-2.34,5.789-2.34c0.345,0,0.699,0.02,1.059,0.057c1.567,0.167,2.708,0.721,3.478,1.698
	c1.431,1.812,1.86,5.293,1.274,10.343c-2.035,17.464-11.441,35.395-20.075,38.647V95.019C210.425,88.149,211.754,68.847,219,62.125z
	 M179.338,101.103c-7.348-36.134,10.761-70.002,25.964-76.545c2.075-0.894,3.954-1.527,5.655-1.954
	c-2.443,1.325-4.778,3.239-6.962,5.732c-16.08,18.361-20.199,63.059-7.464,81.063c2.902,4.105,5.955,5.984,8.743,6.659v12.384
	C194.43,123.267,182.428,116.3,179.338,101.103z" />
				</svg>